<svg width="20" height="20" viewBox="0 0 20 20" fill="none" xmlns="http://www.w3.org/2000/svg">
<path d="M6.41667 15.5C5.40376 15.5 4.59251 16.3205 4.59251 17.3334C4.59251 18.3463 5.40376 19.1667 6.41667 19.1667C7.42959 19.1667 8.25001 18.3463 8.25001 17.3334C8.25001 16.3205 7.42959 15.5 6.41667 15.5ZM0.916672 0.833374V2.66671H2.75001L6.04542 9.61962L4.80792 11.8655C4.66584 12.1313 4.58334 12.4292 4.58334 12.75C4.58334 13.763 5.40376 14.5834 6.41667 14.5834H17.4167V12.75H6.80626C6.67792 12.75 6.57709 12.6492 6.57709 12.5209C6.57709 12.4796 6.58626 12.443 6.60459 12.4109L7.42501 10.9167H14.2542C14.9417 10.9167 15.5421 10.5363 15.8583 9.97254L19.1354 4.02337C19.2088 3.89504 19.25 3.74379 19.25 3.58337C19.25 3.07462 18.8375 2.66671 18.3333 2.66671H4.78042L3.90959 0.833374H0.916672ZM15.5833 15.5C14.5704 15.5 13.7592 16.3205 13.7592 17.3334C13.7592 18.3463 14.5704 19.1667 15.5833 19.1667C16.5963 19.1667 17.4167 18.3463 17.4167 17.3334C17.4167 16.3205 16.5963 15.5 15.5833 15.5Z" fill="white"/>
</svg>
