<svg width="21" height="21" viewBox="0 0 21 21" fill="none" xmlns="http://www.w3.org/2000/svg">
<path d="M10.5 0.875C5.18438 0.875 0.875 5.18438 0.875 10.5C0.875 15.8158 5.18438 20.125 10.5 20.125C15.8158 20.125 20.125 15.8158 20.125 10.5C20.125 5.18438 15.8158 0.875 10.5 0.875ZM10.5 18.375C6.15081 18.375 2.625 14.8492 2.625 10.5C2.625 6.15081 6.15081 2.625 10.5 2.625C14.8492 2.625 18.375 6.15081 18.375 10.5C18.375 14.8492 14.8492 18.375 10.5 18.375Z" fill="white"/>
<path d="M11.375 10.1375V5.25C11.375 4.76678 10.9832 4.375 10.5 4.375C10.0168 4.375 9.625 4.76678 9.625 5.25V10.5C9.625 10.502 9.62566 10.5039 9.62566 10.5059C9.62587 10.5612 9.63134 10.6166 9.64228 10.6711C9.64753 10.698 9.65737 10.7222 9.66503 10.7485C9.67356 10.7774 9.68013 10.8067 9.69172 10.8349C9.70441 10.8651 9.72147 10.8927 9.73722 10.9211C9.74903 10.943 9.75844 10.9648 9.77222 10.9856C9.80438 11.034 9.84091 11.0792 9.88181 11.1197L12.3561 13.5942C12.6978 13.9359 13.2523 13.9359 13.5938 13.5942C13.9355 13.2525 13.9355 12.698 13.5938 12.357L11.375 10.1375Z" fill="white"/>
</svg>
